<?xml version="1.0" standalone="no"?><!DOCTYPE svg PUBLIC "-//W3C//DTD SVG 1.1//EN" "http://www.w3.org/Graphics/SVG/1.1/DTD/svg11.dtd"><svg t="1693245582070" class="icon" viewBox="0 0 1024 1024" version="1.1" xmlns="http://www.w3.org/2000/svg" p-id="21988" xmlns:xlink="http://www.w3.org/1999/xlink" width="48" height="48"><path d="M833.33 767.96h-91.9c-21.73 0-39.34-17.6-39.34-39.34s17.62-39.34 39.34-39.34h91.9c8.82 0 15.98-7.18 15.98-15.98V193.8c0-8.8-7.17-15.98-15.98-15.98H353.84c-8.82 0-15.98 7.18-15.98 15.98v90.86c0 21.75-17.62 39.34-39.34 39.34s-39.34-17.6-39.34-39.34V193.8c0-52.21 42.47-94.67 94.67-94.67h479.49c52.19 0 94.67 42.45 94.67 94.67v479.49c-0.01 52.21-42.49 94.67-94.68 94.67z" fill="#333333" p-id="21989"></path><path d="M675.96 925.33H196.47c-52.19 0-94.67-42.45-94.67-94.67V351.17c0-52.21 42.47-94.67 94.67-94.67h479.49c52.19 0 94.67 42.45 94.67 94.67v479.49c-0.01 52.22-42.48 94.67-94.67 94.67zM196.47 335.19c-8.82 0-15.98 7.18-15.98 15.98v479.49c0 8.8 7.17 15.98 15.98 15.98h479.49c8.82 0 15.98-7.18 15.98-15.98V351.17c0-8.8-7.17-15.98-15.98-15.98H196.47z" fill="#333333" p-id="21990"></path></svg>